<svg width="428" height="97" viewBox="0 0 428 97" fill="none" xmlns="http://www.w3.org/2000/svg">
<path d="M32.3711 9.23633H13.9243C12.6809 9.23633 11.4886 9.73023 10.6094 10.6094C9.73026 11.4885 9.23636 12.6809 9.23636 13.9242V27.9879C9.23419 28.6042 9.35396 29.2147 9.58879 29.7845C9.82361 30.3542 10.1688 30.8719 10.6046 31.3076C11.0403 31.7433 11.558 32.0886 12.1277 32.3234C12.6975 32.5582 13.308 32.678 13.9243 32.6758H32.3711C33.6144 32.6758 34.8068 32.1819 35.686 31.3028C36.5651 30.4236 37.059 29.2312 37.059 27.9879V13.9242C37.0553 12.6821 36.5602 11.4918 35.6819 10.6135C34.8035 9.73513 33.6133 9.24004 32.3711 9.23633ZM34.7151 27.9879C34.7151 28.6096 34.4681 29.2058 34.0286 29.6453C33.589 30.0849 32.9928 30.3319 32.3711 30.3319H13.9243C13.6156 30.335 13.3094 30.2765 13.0236 30.1598C12.7378 30.0431 12.4781 29.8706 12.2598 29.6523C12.0416 29.434 11.869 29.1744 11.7523 28.8886C11.6357 28.6028 11.5772 28.2966 11.5803 27.9879V13.9242C11.5803 13.3026 11.8273 12.7064 12.2668 12.2668C12.7064 11.8272 13.3026 11.5803 13.9243 11.5803H32.3711C32.9928 11.5803 33.589 11.8272 34.0286 12.2668C34.4681 12.7064 34.7151 13.3026 34.7151 13.9242V27.9879Z" fill="#A259FF"/>
<path d="M38.2311 2.20459H8.06446C6.51166 2.20892 5.02369 2.82769 3.92569 3.92569C2.82769 5.02369 2.20892 6.51166 2.20459 8.06446V33.8479C2.20459 35.402 2.82197 36.8925 3.92091 37.9915C4.80849 38.879 5.95149 39.4525 7.17715 39.6402C7.6634 39.7147 8.06446 40.1065 8.06446 40.5985C8.06446 41.531 8.43489 42.4252 9.09425 43.0846C9.75361 43.744 10.6479 44.1144 11.5804 44.1144H14.9322C15.8647 44.1144 16.759 43.744 17.4184 43.0846C18.0777 42.4252 18.4482 41.531 18.4482 40.5985C18.4482 40.1065 18.8469 39.7078 19.3389 39.7078H26.9332C27.4252 39.7078 27.824 40.1065 27.824 40.5985C27.824 41.531 28.1944 42.4252 28.8537 43.0846C29.5131 43.744 30.4074 44.1144 31.3399 44.1144H34.7152C35.6476 44.1144 36.5419 43.744 37.2013 43.0846C37.8607 42.4252 38.2311 41.531 38.2311 40.5985C38.2311 40.1065 38.6321 39.7147 39.1184 39.6402C40.3441 39.4525 41.4871 38.879 42.3746 37.9915C43.4736 36.8925 44.091 35.402 44.091 33.8479V8.06446C44.0866 6.51166 43.4679 5.02369 42.3699 3.92569C41.2719 2.82769 39.7839 2.20892 38.2311 2.20459ZM16.1042 40.5985C16.1042 40.9093 15.9807 41.2074 15.7609 41.4272C15.5412 41.647 15.2431 41.7704 14.9322 41.7704H11.5804C11.2696 41.7704 10.9715 41.647 10.7517 41.4272C10.5319 41.2074 10.4084 40.9093 10.4084 40.5985C10.4084 40.1065 10.8072 39.7078 11.2991 39.7078H15.2135C15.7054 39.7078 16.1042 40.1065 16.1042 40.5985ZM35.8871 40.5985C35.8871 40.9093 35.7637 41.2074 35.5439 41.4272C35.3241 41.647 35.026 41.7704 34.7152 41.7704H31.3516C31.0426 41.7644 30.748 41.639 30.5295 41.4205C30.311 41.202 30.1856 40.9074 30.1796 40.5985C30.1796 40.1065 30.5784 39.7078 31.0703 39.7078H35.0081C35.4981 39.7078 35.8936 40.1085 35.8871 40.5985ZM41.747 33.8479C41.747 34.7804 41.3766 35.6747 40.7172 36.334C40.0579 36.9934 39.1636 37.3638 38.2311 37.3638H8.06446C7.13198 37.3638 6.23769 36.9934 5.57833 36.334C4.91896 35.6747 4.54854 34.7804 4.54854 33.8479V8.06446C4.54854 7.13198 4.91896 6.23769 5.57833 5.57833C6.23769 4.91897 7.13198 4.54854 8.06446 4.54854H38.2311C39.1636 4.54854 40.0579 4.91897 40.7172 5.57833C41.3766 6.23769 41.747 7.13198 41.747 8.06446V33.8479Z" fill="#A259FF"/>
<path d="M28.4568 19.784C27.6124 19.784 26.9078 19.1844 26.4068 18.5046C26.2932 18.3504 26.1679 18.2043 26.0318 18.0676C25.8957 17.9309 25.7502 17.8051 25.5964 17.6907C24.9182 17.1864 24.3197 16.4804 24.3197 15.6352C24.3167 15.4844 24.284 15.3356 24.2234 15.1974C24.1629 15.0593 24.0757 14.9344 23.9668 14.8299C23.858 14.7254 23.7296 14.6434 23.5891 14.5885C23.4486 14.5337 23.2986 14.507 23.1478 14.5101C22.8449 14.5099 22.5537 14.6269 22.3352 14.8367C22.1167 15.0464 21.9879 15.3326 21.9758 15.6352C21.9758 16.4798 21.3764 17.1847 20.697 17.6864C20.5416 17.8011 20.3945 17.9277 20.257 18.0652C20.1194 18.2027 19.9929 18.3498 19.8782 18.5052C19.3765 19.1846 18.6716 19.784 17.827 19.784C17.5244 19.7961 17.2382 19.9249 17.0284 20.1434C16.8187 20.3619 16.7017 20.6531 16.7019 20.956C16.6988 21.1068 16.7254 21.2568 16.7803 21.3973C16.8352 21.5379 16.9172 21.6662 17.0217 21.7751C17.1261 21.8839 17.251 21.9711 17.3892 22.0316C17.5274 22.0922 17.6762 22.1249 17.827 22.128C18.6716 22.128 19.3765 22.7274 19.8782 23.4068C19.9929 23.5622 20.1194 23.7093 20.257 23.8468C20.3889 23.9787 20.5297 24.1006 20.6782 24.2116C21.3656 24.7257 21.9758 25.4418 21.9758 26.3002C21.988 26.6007 22.1176 26.8844 22.3367 27.0904C22.5559 27.2964 22.8471 27.4082 23.1478 27.4018C23.2972 27.4072 23.4463 27.3828 23.5863 27.3302C23.7263 27.2776 23.8544 27.1978 23.9634 27.0953C24.0724 26.9929 24.16 26.8699 24.2211 26.7334C24.2823 26.5969 24.3158 26.4497 24.3197 26.3002C24.3197 25.4443 24.9351 24.7333 25.623 24.2241C25.7733 24.1128 25.9157 23.9902 26.0488 23.8571C26.1876 23.7183 26.3148 23.5696 26.4298 23.4123C26.9265 22.7324 27.6265 22.128 28.4685 22.128C28.6198 22.1265 28.7693 22.0948 28.9082 22.0348C29.0471 21.9748 29.1726 21.8876 29.2774 21.7785C29.3822 21.6693 29.4642 21.5404 29.5185 21.3991C29.5728 21.2579 29.5983 21.1072 29.5936 20.956C29.5967 20.8042 29.5697 20.6533 29.5141 20.512C29.4585 20.3707 29.3755 20.2418 29.2697 20.1328C29.164 20.0238 29.0377 19.9369 28.8982 19.877C28.7587 19.8171 28.6086 19.7855 28.4568 19.784ZM23.1478 22.714C22.8001 22.714 22.4602 22.6108 22.1711 22.4177C21.882 22.2245 21.6567 21.95 21.5236 21.6287C21.3906 21.3075 21.3557 20.954 21.4236 20.613C21.4914 20.272 21.6588 19.9588 21.9047 19.7129C22.1506 19.4671 22.4638 19.2996 22.8048 19.2318C23.1458 19.164 23.4993 19.1988 23.8205 19.3318C24.1417 19.4649 24.4163 19.6902 24.6095 19.9793C24.8026 20.2684 24.9057 20.6083 24.9057 20.956C24.9057 21.4222 24.7205 21.8694 24.3908 22.1991C24.0611 22.5287 23.614 22.714 23.1478 22.714Z" fill="#A259FF"/>
<path d="M82.9156 15.7149C82.5898 15.4345 82.4124 15.0636 82.4209 14.6803C82.4293 14.2971 82.6228 13.9314 82.9608 13.6603C83.2987 13.3893 83.7545 13.234 84.2323 13.2273C84.7101 13.2205 85.1725 13.3628 85.5221 13.6241L95.3583 21.514C95.7037 21.7914 95.8977 22.1674 95.8977 22.5595C95.8977 22.9515 95.7037 23.3275 95.3583 23.6049L85.5221 31.4948C85.3533 31.6402 85.1497 31.7568 84.9235 31.8376C84.6972 31.9185 84.453 31.962 84.2054 31.9655C83.9577 31.969 83.7118 31.9324 83.4821 31.858C83.2525 31.7836 83.0439 31.6729 82.8687 31.5324C82.6936 31.3919 82.5555 31.2246 82.4628 31.0404C82.37 30.8562 82.3245 30.6589 82.3289 30.4602C82.3332 30.2616 82.3874 30.0657 82.4882 29.8842C82.589 29.7028 82.7344 29.5394 82.9156 29.404C85.1365 27.6225 83.8768 24.0388 81.0296 24.0388H65.776C65.2869 24.0388 64.8178 23.883 64.4719 23.6055C64.1261 23.3281 63.9318 22.9518 63.9318 22.5595C63.9318 22.1671 64.1261 21.7908 64.4719 21.5134C64.8178 21.236 65.2869 21.0801 65.776 21.0801H81.0296C83.8768 21.0801 85.1365 17.4964 82.9156 15.7149Z" fill="#A259FF"/>
<path d="M196.45 15.7149C196.124 15.4345 195.947 15.0636 195.955 14.6803C195.963 14.2971 196.157 13.9314 196.495 13.6603C196.833 13.3893 197.289 13.234 197.766 13.2273C198.244 13.2205 198.707 13.3628 199.056 13.6241L208.892 21.514C209.238 21.7914 209.432 22.1674 209.432 22.5595C209.432 22.9515 209.238 23.3275 208.892 23.6049L199.056 31.4948C198.887 31.6402 198.684 31.7568 198.458 31.8376C198.231 31.9185 197.987 31.962 197.74 31.9655C197.492 31.969 197.246 31.9324 197.016 31.858C196.787 31.7836 196.578 31.6729 196.403 31.5324C196.228 31.3919 196.09 31.2246 195.997 31.0404C195.904 30.8562 195.859 30.6589 195.863 30.4602C195.867 30.2616 195.922 30.0657 196.022 29.8842C196.123 29.7028 196.269 29.5394 196.45 29.404C198.671 27.6225 197.411 24.0388 194.564 24.0388H179.31C178.821 24.0388 178.352 23.883 178.006 23.6055C177.66 23.3281 177.466 22.9518 177.466 22.5595C177.466 22.1671 177.66 21.7908 178.006 21.5134C178.352 21.236 178.821 21.0801 179.31 21.0801H194.564C197.411 21.0801 198.671 17.4964 196.45 15.7149Z" fill="#A259FF"/>
<path d="M309.984 15.7149C309.658 15.4345 309.481 15.0636 309.489 14.6803C309.498 14.2971 309.691 13.9314 310.029 13.6603C310.367 13.3893 310.823 13.234 311.301 13.2273C311.778 13.2205 312.241 13.3628 312.59 13.6241L322.427 21.514C322.772 21.7914 322.966 22.1674 322.966 22.5595C322.966 22.9515 322.772 23.3275 322.427 23.6049L312.59 31.4948C312.422 31.6402 312.218 31.7568 311.992 31.8376C311.765 31.9185 311.521 31.962 311.274 31.9655C311.026 31.969 310.78 31.9324 310.55 31.858C310.321 31.7836 310.112 31.6729 309.937 31.5324C309.762 31.3919 309.624 31.2246 309.531 31.0404C309.438 30.8562 309.393 30.6589 309.397 30.4602C309.401 30.2616 309.456 30.0657 309.556 29.8842C309.657 29.7028 309.803 29.5394 309.984 29.404C312.205 27.6225 310.945 24.0388 308.098 24.0388H292.844C292.355 24.0388 291.886 23.883 291.54 23.6055C291.194 23.3281 291 22.9518 291 22.5595C291 22.1671 291.194 21.7908 291.54 21.5134C291.886 21.236 292.355 21.0801 292.844 21.0801H308.098C310.945 21.0801 312.205 17.4964 309.984 15.7149Z" fill="#A259FF"/>
<path d="M136.682 7.44108C136.682 6.05228 136.13 4.72036 135.148 3.73832C134.166 2.75629 132.834 2.20459 131.445 2.20459C130.057 2.20459 128.725 2.75629 127.743 3.73832C127.555 3.9258 127.383 4.12604 127.228 4.33698C126.14 5.81476 124.623 7.37344 123.039 8.29894C122.077 8.86083 121.282 9.66835 120.735 10.6388C120.187 11.6092 119.908 12.7076 119.925 13.8215C119.95 15.433 119.095 17.3594 117.882 18.4214C117.629 18.6432 117.393 18.8861 117.176 19.1485C116.247 20.2747 115.739 21.6893 115.739 23.1495C115.739 24.6097 116.247 26.0243 117.176 27.1505C117.393 27.4127 117.629 27.6554 117.882 27.877C119.094 28.9393 119.949 30.8665 119.924 32.4781C119.907 33.5923 120.186 34.6911 120.733 35.6619C121.28 36.6326 122.076 37.4404 123.038 38.0023C124.623 38.928 126.14 40.487 127.229 41.9649C127.384 42.1756 127.555 42.3755 127.743 42.5628C128.725 43.5448 130.057 44.0965 131.445 44.0965C132.834 44.0965 134.166 43.5448 135.148 42.5628C136.13 41.5808 136.682 40.2488 136.682 38.86M136.682 38.86C136.682 40.2488 137.234 41.5808 138.216 42.5628C139.198 43.5448 140.53 44.0965 141.918 44.0965C143.307 44.0965 144.639 43.5448 145.621 42.5628C145.808 42.3755 145.98 42.1756 146.135 41.9649C147.223 40.487 148.741 38.928 150.326 38.0023C151.288 37.4404 152.083 36.6326 152.631 35.6619C153.178 34.6911 153.457 33.5923 153.44 32.4781C153.414 30.8665 154.27 28.9393 155.482 27.877C155.735 27.6554 155.971 27.4127 156.187 27.1505C157.117 26.0243 157.625 24.6097 157.625 23.1495C157.625 21.6893 157.117 20.2747 156.187 19.1485C155.971 18.8861 155.734 18.6432 155.481 18.4214C154.269 17.3594 153.414 15.433 153.438 13.8215C153.456 12.7076 153.176 11.6092 152.629 10.6388C152.082 9.66835 151.287 8.86083 150.325 8.29894C148.74 7.37344 147.223 5.81476 146.136 4.33698C145.98 4.12604 145.809 3.9258 145.621 3.73832C144.639 2.75629 143.307 2.20459 141.918 2.20459C140.53 2.20459 139.198 2.75629 138.216 3.73832C137.234 4.72036 136.682 6.05228 136.682 7.44108" stroke="#A259FF" stroke-width="3.1419" stroke-linecap="round" stroke-linejoin="round"/>
<path d="M133.513 12.6777V16.825M126.209 20.0088H130.507M143.014 20.0088H147.312M143.014 26.2382H147.312M126.209 26.2403H130.507M133.513 29.4764V33.6237M139.849 29.4764V33.6237M139.828 12.6777V16.825M132.601 29.3675H140.919C141.475 29.3675 142.007 29.1468 142.4 28.754C142.793 28.3612 143.014 27.8284 143.014 27.2729V18.9196C143.014 18.3641 142.793 17.8313 142.4 17.4385C142.007 17.0457 141.475 16.825 140.919 16.825H132.601C132.046 16.825 131.513 17.0457 131.12 17.4385C130.728 17.8313 130.507 18.3641 130.507 18.9196V27.2729C130.507 27.8284 130.728 28.3612 131.12 28.754C131.513 29.1468 132.046 29.3675 132.601 29.3675Z" stroke="#A259FF" stroke-width="3.1419" stroke-linecap="round"/>
<path d="M243.335 14.6499C244.219 15.2186 244.25 16.4998 243.395 17.1108L240.902 18.8911C240.569 18.0646 239.681 17.4531 238.656 17.7827L238.529 17.8286C237.555 18.2123 236.67 18.8037 235.941 19.5669C234.949 20.6045 234.287 21.9129 234.038 23.3267C233.79 24.7407 233.966 26.1973 234.544 27.5112C235.123 28.825 236.078 29.9382 237.288 30.7095H237.289C238.746 31.6367 240.486 32.0149 242.197 31.7759C243.726 31.5621 245.143 30.8672 246.245 29.7993C246.445 29.6058 246.609 29.465 246.768 29.3618C247.708 28.752 248.636 28.9504 249.169 29.4214C249.439 29.6595 249.601 29.9586 249.643 30.27C249.683 30.5699 249.623 30.965 249.302 31.4282C249.028 31.8234 248.764 32.1693 248.515 32.4585C246.701 34.3545 243.407 35.2436 240.926 35.2437H240.924C238.229 35.2466 235.637 34.2097 233.688 32.3491C231.738 30.4885 230.582 27.9474 230.459 25.2554C230.337 22.5634 231.257 19.928 233.03 17.8979C234.659 16.0309 236.894 14.8076 239.33 14.4351C240.058 14.3238 240.691 13.8154 240.935 13.1069L243.335 14.6499Z" fill="#A259FF" stroke="#A259FF" stroke-width="2.35151"/>
<mask id="path-10-inside-1_145_27" fill="white">
<path d="M261.031 29.8559C261.031 28.8381 259.881 28.2461 259.053 28.8377L256.82 30.4323C255.288 31.5265 255.344 33.8214 256.928 34.8394L259.817 36.6967C260.341 37.0338 261.031 36.6573 261.031 36.0339C261.031 35.6261 261.343 35.2886 261.746 35.227C264.456 34.8125 266.942 33.4526 268.755 31.3757C270.726 29.1175 271.75 26.1857 271.614 23.1912C271.477 20.1966 270.191 17.3701 268.022 15.3004C265.854 13.2308 262.971 12.0775 259.973 12.0808C257.306 12.0808 253.624 13.0191 251.507 15.2554C251.219 15.5888 250.924 15.9776 250.628 16.4056C248.744 19.1273 251.991 21.9269 254.767 20.1257C255.023 19.9601 255.251 19.7565 255.469 19.5446C256.046 18.9851 256.729 18.5443 257.48 18.2493C258.373 17.8982 259.337 17.7634 260.293 17.8559C261.248 17.9485 262.168 18.2657 262.977 18.7817C263.787 19.2976 264.463 19.9978 264.95 20.8249C265.437 21.652 265.722 22.5826 265.78 23.5406C265.839 24.4987 265.67 25.4571 265.288 26.3376C264.906 27.218 264.32 27.9955 263.58 28.6066C262.84 29.2176 261.966 29.6449 261.029 29.8535"/>
</mask>
<path d="M261.031 29.8559C261.031 28.8381 259.881 28.2461 259.053 28.8377L256.82 30.4323C255.288 31.5265 255.344 33.8214 256.928 34.8394L259.817 36.6967C260.341 37.0338 261.031 36.6573 261.031 36.0339C261.031 35.6261 261.343 35.2886 261.746 35.227C264.456 34.8125 266.942 33.4526 268.755 31.3757C270.726 29.1175 271.75 26.1857 271.614 23.1912C271.477 20.1966 270.191 17.3701 268.022 15.3004C265.854 13.2308 262.971 12.0775 259.973 12.0808C257.306 12.0808 253.624 13.0191 251.507 15.2554C251.219 15.5888 250.924 15.9776 250.628 16.4056C248.744 19.1273 251.991 21.9269 254.767 20.1257C255.023 19.9601 255.251 19.7565 255.469 19.5446C256.046 18.9851 256.729 18.5443 257.48 18.2493C258.373 17.8982 259.337 17.7634 260.293 17.8559C261.248 17.9485 262.168 18.2657 262.977 18.7817C263.787 19.2976 264.463 19.9978 264.95 20.8249C265.437 21.652 265.722 22.5826 265.78 23.5406C265.839 24.4987 265.67 25.4571 265.288 26.3376C264.906 27.218 264.32 27.9955 263.58 28.6066C262.84 29.2176 261.966 29.6449 261.029 29.8535" fill="#A259FF"/>
<path d="M259.973 12.0808V14.4323L259.976 14.4323L259.973 12.0808ZM251.507 15.2554L249.8 13.639L249.764 13.6767L249.73 13.7159L251.507 15.2554ZM254.767 20.1257L253.488 18.1529L254.767 20.1257ZM255.469 19.5446L257.106 21.2326L255.469 19.5446ZM261.746 35.227L262.101 37.5514L261.746 35.227ZM259.817 36.6967L258.545 38.6747L259.817 36.6967ZM259.053 28.8377L257.686 26.9242L259.053 28.8377ZM259.053 28.8377L257.686 26.9242L255.453 28.5188L256.82 30.4323L258.187 32.3458L260.419 30.7512L259.053 28.8377ZM256.928 34.8394L255.656 36.8174L258.545 38.6747L259.817 36.6967L261.089 34.7186L258.2 32.8614L256.928 34.8394ZM261.746 35.227L262.101 37.5514C265.359 37.0533 268.347 35.4186 270.526 32.9222L268.755 31.3757L266.983 29.8293C265.536 31.4865 263.553 32.5718 261.39 32.9025L261.746 35.227ZM268.755 31.3757L270.526 32.9222C272.896 30.2077 274.127 26.6837 273.963 23.0842L271.614 23.1912L269.265 23.2982C269.374 25.6878 268.556 28.0272 266.983 29.8293L268.755 31.3757ZM271.614 23.1912L273.963 23.0842C273.799 19.4847 272.253 16.0872 269.646 13.5994L268.022 15.3004L266.399 17.0015C268.129 18.6531 269.156 20.9086 269.265 23.2982L271.614 23.1912ZM268.022 15.3004L269.646 13.5994C267.039 11.1116 263.574 9.7253 259.97 9.72931L259.973 12.0808L259.976 14.4323C262.368 14.4297 264.668 15.35 266.399 17.0015L268.022 15.3004ZM259.973 12.0808V9.72931C256.958 9.72931 252.53 10.7537 249.8 13.639L251.507 15.2554L253.215 16.8717C254.717 15.2845 257.654 14.4323 259.973 14.4323V12.0808ZM251.507 15.2554L249.73 13.7159C249.371 14.1304 249.024 14.5905 248.694 15.0675L250.628 16.4056L252.561 17.7437C252.824 17.3647 253.066 17.0473 253.285 16.7948L251.507 15.2554ZM255.469 19.5446L257.106 21.2326C257.46 20.8894 257.88 20.6189 258.34 20.4379L257.48 18.2493L256.62 16.0607C255.579 16.4698 254.632 17.0809 253.832 17.8565L255.469 19.5446ZM257.48 18.2493L258.34 20.4379C258.888 20.2224 259.48 20.1397 260.066 20.1965L260.293 17.8559L260.519 15.5154C259.195 15.3871 257.859 15.574 256.62 16.0607L257.48 18.2493ZM260.293 17.8559L260.066 20.1965C260.652 20.2533 261.217 20.4479 261.713 20.7645L262.977 18.7817L264.241 16.7988C263.119 16.0834 261.844 15.6436 260.519 15.5154L260.293 17.8559ZM262.977 18.7817L261.713 20.7645C262.21 21.0811 262.625 21.5107 262.924 22.0182L264.95 20.8249L266.976 19.6315C266.301 18.4848 265.364 17.5142 264.241 16.7988L262.977 18.7817ZM264.95 20.8249L262.924 22.0182C263.223 22.5257 263.397 23.0968 263.433 23.6846L265.78 23.5406L268.127 23.3966C268.046 22.0683 267.651 20.7782 266.976 19.6315L264.95 20.8249ZM265.78 23.5406L263.433 23.6846C263.469 24.2725 263.366 24.8606 263.131 25.4008L265.288 26.3376L267.445 27.2743C267.975 26.0536 268.209 24.7249 268.127 23.3966L265.78 23.5406ZM265.288 26.3376L263.131 25.4008C262.897 25.9411 262.537 26.4181 262.083 26.7931L263.58 28.6066L265.077 30.42C266.103 29.5729 266.915 28.4949 267.445 27.2743L265.288 26.3376ZM263.58 28.6066L262.083 26.7931C261.629 27.168 261.093 27.4302 260.518 27.5582L261.029 29.8535L261.54 32.1488C262.839 31.8596 264.051 31.2672 265.077 30.42L263.58 28.6066ZM254.767 20.1257L256.047 22.0986C256.494 21.8084 256.851 21.4801 257.106 21.2326L255.469 19.5446L253.832 17.8565C253.65 18.033 253.551 18.1117 253.488 18.1529L254.767 20.1257ZM250.628 16.4056L248.694 15.0675C247.922 16.1827 247.591 17.4496 247.759 18.7014C247.924 19.93 248.548 20.9782 249.394 21.7247C251.097 23.2284 253.761 23.5813 256.047 22.0986L254.767 20.1257L253.488 18.1529C253.217 18.3286 253.005 18.3534 252.866 18.3426C252.711 18.3305 252.585 18.2688 252.506 18.1988C252.429 18.1304 252.421 18.0809 252.42 18.0753C252.419 18.0707 252.417 18.0508 252.428 18.0082C252.439 17.9646 252.471 17.8747 252.561 17.7437L250.628 16.4056ZM261.031 36.0339H263.383C263.383 36.8759 262.757 37.4512 262.101 37.5514L261.746 35.227L261.39 32.9025C259.929 33.126 258.68 34.3763 258.68 36.0339H261.031ZM259.817 36.6967L258.545 38.6747C260.635 40.0179 263.383 38.5177 263.383 36.0339H261.031H258.68C258.68 34.7968 260.048 34.0497 261.089 34.7186L259.817 36.6967ZM256.82 30.4323L255.453 28.5188C252.569 30.5792 252.674 34.9005 255.656 36.8174L256.928 34.8394L258.2 32.8614C258.014 32.7423 258.008 32.4738 258.187 32.3458L256.82 30.4323ZM261.031 29.8559H263.383C263.383 26.9255 260.07 25.2209 257.686 26.9242L259.053 28.8377L260.419 30.7512C259.691 31.2713 258.68 30.7508 258.68 29.8559H261.031Z" fill="#A259FF" mask="url(#path-10-inside-1_145_27)"/>
<path d="M374.034 37.4395C374.086 37.4338 374.139 37.4388 374.188 37.4541L374.208 37.46L377.133 38.1885C377.231 38.213 377.315 38.2757 377.367 38.3623C377.419 38.4491 377.435 38.5532 377.411 38.6514C377.386 38.7497 377.323 38.8345 377.236 38.8867C377.149 38.9388 377.045 38.9542 376.947 38.9297C376.552 38.8315 376.176 38.9872 375.984 39.2861C375.783 39.5996 375.82 40.0179 376.139 40.3115C376.603 40.7369 377.132 41.0895 377.71 41.3535C378.745 41.8268 379.894 41.9967 381.022 41.8438C382.151 41.6907 383.213 41.2213 384.085 40.4893C384.957 39.7572 385.604 38.7927 385.95 37.708C385.981 37.6116 386.049 37.5309 386.138 37.4844C386.183 37.4614 386.232 37.4476 386.282 37.4434C386.332 37.4392 386.383 37.4447 386.43 37.46C386.478 37.4752 386.523 37.4999 386.561 37.5322C386.599 37.5645 386.631 37.604 386.654 37.6484C386.677 37.693 386.691 37.742 386.695 37.792C386.699 37.842 386.694 37.8926 386.678 37.9404C386.377 38.8848 385.873 39.752 385.201 40.4805C384.529 41.209 383.705 41.7813 382.788 42.1572C381.359 42.7427 379.772 42.8233 378.291 42.3857C377.124 42.0409 376.077 41.3903 375.255 40.5098C375.016 40.254 374.674 40.178 374.381 40.2402C374.084 40.3032 373.797 40.5177 373.707 40.877L373.705 40.8857C373.694 40.9352 373.673 40.9821 373.643 41.0234C373.614 41.0649 373.575 41.1002 373.532 41.127C373.489 41.1536 373.441 41.1719 373.39 41.1797C373.34 41.1874 373.289 41.1851 373.24 41.1729C373.191 41.1605 373.144 41.1379 373.103 41.1074C373.063 41.077 373.028 41.0389 373.003 40.9951C372.977 40.9512 372.96 40.902 372.953 40.8516C372.946 40.8013 372.95 40.7501 372.964 40.7012L372.966 40.6924L373.705 37.7285V37.7275C373.717 37.6772 373.739 37.6292 373.77 37.5879L373.771 37.5889C373.803 37.5475 373.842 37.5119 373.887 37.4863C373.933 37.4609 373.982 37.4451 374.034 37.4395ZM379.547 29.0742C380.773 28.9529 382.009 29.1681 383.123 29.6963C383.921 30.0751 384.635 30.605 385.226 31.2529C385.472 31.5214 385.825 31.6112 386.135 31.5566C386.45 31.5014 386.758 31.2897 386.871 30.9209C386.886 30.8729 386.909 30.8278 386.941 30.7891C386.973 30.7505 387.012 30.7188 387.056 30.6953C387.101 30.6718 387.149 30.6572 387.199 30.6523C387.249 30.6475 387.299 30.6524 387.347 30.667C387.395 30.6817 387.441 30.7054 387.479 30.7373C387.518 30.7692 387.549 30.8092 387.573 30.8535C387.596 30.8978 387.611 30.9462 387.616 30.9961C387.621 31.046 387.616 31.0966 387.601 31.1445L386.708 34.0664C386.678 34.1632 386.611 34.2445 386.521 34.292C386.432 34.3393 386.327 34.3488 386.23 34.3193L383.309 33.4258L383.301 33.4238L383.23 33.3955C383.208 33.384 383.187 33.3703 383.167 33.3545C383.127 33.3228 383.093 33.2839 383.069 33.2393C383.045 33.1946 383.029 33.1453 383.024 33.0947C383.019 33.0442 383.024 32.9929 383.039 32.9443C383.054 32.8957 383.079 32.8506 383.111 32.8115C383.144 32.7725 383.184 32.7402 383.229 32.7168C383.274 32.6935 383.324 32.6788 383.375 32.6748C383.425 32.6709 383.476 32.6775 383.524 32.6934L383.533 32.6963C383.9 32.8083 384.263 32.6769 384.454 32.3965C384.654 32.1018 384.622 31.7027 384.323 31.4238C383.876 31.0064 383.365 30.6575 382.808 30.3916C381.82 29.9197 380.722 29.727 379.632 29.833C378.541 29.9391 377.501 30.3405 376.622 30.9941C375.743 31.6477 375.059 32.5285 374.643 33.542L374.445 34.0254L374.441 34.0352C374.423 34.0828 374.395 34.1262 374.36 34.1631C374.325 34.2 374.283 34.2297 374.236 34.25C374.189 34.2703 374.139 34.2817 374.088 34.2822C374.037 34.2827 373.986 34.2722 373.939 34.2529C373.892 34.2336 373.849 34.2051 373.813 34.1689C373.777 34.1328 373.748 34.0902 373.729 34.043C373.71 33.9956 373.701 33.9446 373.702 33.8936C373.703 33.8425 373.714 33.7918 373.734 33.7451H373.735L373.738 33.7363L373.937 33.2529C374.405 32.1127 375.174 31.1209 376.162 30.3848C377.15 29.6486 378.32 29.1956 379.547 29.0742Z" fill="#A259FF" stroke="#A259FF" stroke-width="0.763901"/>
<path d="M355.788 16.2402C357.136 13.2765 361.346 13.2764 362.694 16.2402C363.279 17.5272 364.31 18.5586 365.597 19.1436C368.561 20.4909 368.561 24.7013 365.597 26.0488C364.31 26.6337 363.279 27.6654 362.694 28.9521C361.346 31.9164 357.136 31.9164 355.788 28.9521C355.203 27.6653 354.172 26.6338 352.885 26.0488C349.921 24.7014 349.921 20.4909 352.885 19.1436C354.172 18.5586 355.203 17.5271 355.788 16.2402ZM361.913 19.4863C360.871 17.1908 357.61 17.1908 356.568 19.4863C356.479 19.6803 356.324 19.8357 356.13 19.9238C353.835 20.9663 353.835 24.2271 356.13 25.2695C356.324 25.3577 356.479 25.513 356.568 25.707C357.61 28.0025 360.871 28.0025 361.913 25.707C362.002 25.5129 362.158 25.3577 362.352 25.2695C364.647 24.227 364.647 20.9664 362.352 19.9238C362.158 19.8357 362.002 19.6804 361.913 19.4863ZM378.525 5.25195C379.016 4.17122 380.551 4.17122 381.042 5.25195C381.386 6.00812 381.992 6.6142 382.748 6.95801C383.829 7.44925 383.829 8.98434 382.748 9.47559C381.992 9.81947 381.386 10.4262 381.042 11.1826C380.551 12.2632 379.016 12.263 378.525 11.1826C378.181 10.4261 377.574 9.81945 376.818 9.47559C375.737 8.9843 375.737 7.44924 376.818 6.95801C377.574 6.61418 378.181 6.00832 378.525 5.25195Z" fill="#A259FF" stroke="#A259FF" stroke-width="2.05424"/>
<path d="M3.76977 69.9092L0.710966 57.8393H2.54625L4.48074 65.8749C4.60199 66.3488 4.70671 66.8228 4.79489 67.2968C4.89409 67.7597 4.96574 68.1235 5.00983 68.388C5.05392 68.1235 5.11455 67.7597 5.19171 67.2968C5.27989 66.8228 5.3846 66.3433 5.50585 65.8583L7.42381 57.8393H9.20949L6.13415 69.9092H3.76977ZM13.9648 70.0745C13.0169 70.0745 12.2673 69.832 11.7162 69.347C11.1761 68.851 10.906 68.1786 10.906 67.3299C10.906 66.4701 11.1926 65.7977 11.7658 65.3127C12.35 64.8167 13.1492 64.5687 14.1633 64.5687H16.693V63.7254C16.693 63.2294 16.5387 62.8436 16.23 62.568C15.9214 62.2925 15.486 62.1547 14.9238 62.1547C14.4278 62.1547 14.0145 62.2649 13.6838 62.4854C13.3531 62.6948 13.1602 62.9759 13.1051 63.3286H11.3525C11.4517 62.5129 11.8264 61.8626 12.4768 61.3776C13.1381 60.8926 13.9704 60.6501 14.9734 60.6501C16.0537 60.6501 16.9079 60.9257 17.5362 61.4768C18.1645 62.0169 18.4787 62.7554 18.4787 63.6924V69.9092H16.7426V68.2392H16.445L16.7426 67.9086C16.7426 68.5699 16.4891 69.099 15.982 69.4958C15.475 69.8816 14.8026 70.0745 13.9648 70.0745ZM14.4939 68.7022C15.1333 68.7022 15.6568 68.5424 16.0647 68.2227C16.4835 67.892 16.693 67.4732 16.693 66.9661V65.7757H14.1963C13.7334 65.7757 13.3641 65.9024 13.0885 66.1559C12.824 66.4095 12.6917 66.7567 12.6917 67.1976C12.6917 67.6605 12.8516 68.0298 13.1712 68.3054C13.4909 68.5699 13.9318 68.7022 14.4939 68.7022ZM24.7717 70.0745C23.6804 70.0745 22.8096 69.7604 22.1593 69.1321C21.509 68.4928 21.1838 67.6275 21.1838 66.5362V60.8154H22.9695V66.5362C22.9695 67.1645 23.1293 67.655 23.449 68.0078C23.7686 68.3495 24.2095 68.5203 24.7717 68.5203C25.3449 68.5203 25.7913 68.3495 26.1109 68.0078C26.4416 67.655 26.607 67.1645 26.607 66.5362V60.8154H28.3927V66.5362C28.3927 67.6275 28.062 68.4928 27.4006 69.1321C26.7503 69.7604 25.874 70.0745 24.7717 70.0745ZM36.0084 69.9092C35.4463 69.9092 34.9557 69.799 34.5369 69.5785C34.118 69.347 33.7873 69.0219 33.5448 68.603C33.3134 68.1841 33.1976 67.6991 33.1976 67.148V59.4596H30.2215V57.8393H34.9833V67.148C34.9833 67.5007 35.0825 67.7818 35.2809 67.9912C35.4793 68.1896 35.7494 68.2888 36.0911 68.2888H38.9019V69.9092H36.0084ZM45.6083 69.9092C44.7816 69.9092 44.1367 69.6832 43.6738 69.2313C43.2108 68.7794 42.9793 68.1511 42.9793 67.3464V62.4358H40.4662V60.8154H42.9793V58.2526H44.765V60.8154H48.3199V62.4358H44.765V67.3464C44.765 67.9747 45.0681 68.2888 45.6744 68.2888H48.1545V69.9092H45.6083Z" fill="#BDBDBD"/>
<path d="M230.696 70.0745C229.946 70.0745 229.291 69.9367 228.728 69.6612C228.177 69.3746 227.747 68.9667 227.439 68.4376C227.141 67.8975 226.992 67.2692 226.992 66.5528V61.1957C226.992 60.4682 227.141 59.8399 227.439 59.3108C227.747 58.7817 228.177 58.3794 228.728 58.1038C229.291 57.8172 229.946 57.674 230.696 57.674C231.446 57.674 232.096 57.8172 232.647 58.1038C233.198 58.3904 233.622 58.7983 233.92 59.3274C234.229 59.8454 234.383 60.4682 234.383 61.1957H232.597C232.597 60.5674 232.432 60.0879 232.101 59.7572C231.771 59.4266 231.302 59.2612 230.696 59.2612C230.09 59.2612 229.616 59.4266 229.274 59.7572C228.943 60.0879 228.778 60.5619 228.778 61.1792V66.5528C228.778 67.17 228.943 67.6495 229.274 67.9912C229.616 68.3219 230.09 68.4872 230.696 68.4872C231.302 68.4872 231.771 68.3219 232.101 67.9912C232.432 67.6495 232.597 67.17 232.597 66.5528H234.383C234.383 67.2692 234.229 67.892 233.92 68.4211C233.622 68.9502 233.198 69.358 232.647 69.6446C232.096 69.9312 231.446 70.0745 230.696 70.0745ZM236.972 69.9092V57.8393H238.758V60.8154L238.742 62.5515H239.171L238.742 62.9649C238.742 62.2374 238.957 61.6697 239.386 61.2618C239.816 60.854 240.412 60.6501 241.172 60.6501C242.076 60.6501 242.798 60.9422 243.338 61.5264C243.878 62.0996 244.148 62.8767 244.148 63.8577V69.9092H242.363V64.0561C242.363 63.4609 242.203 62.9979 241.883 62.6672C241.563 62.3366 241.128 62.1712 240.577 62.1712C240.015 62.1712 239.568 62.3476 239.238 62.7003C238.918 63.042 238.758 63.5325 238.758 64.1718V69.9092H236.972ZM249.548 70.0745C248.6 70.0745 247.851 69.832 247.3 69.347C246.76 68.851 246.49 68.1786 246.49 67.3299C246.49 66.4701 246.776 65.7977 247.349 65.3127C247.934 64.8167 248.733 64.5687 249.747 64.5687H252.277V63.7254C252.277 63.2294 252.122 62.8436 251.814 62.568C251.505 62.2925 251.07 62.1547 250.507 62.1547C250.011 62.1547 249.598 62.2649 249.267 62.4854C248.937 62.6948 248.744 62.9759 248.689 63.3286H246.936C247.035 62.5129 247.41 61.8626 248.06 61.3776C248.722 60.8926 249.554 60.6501 250.557 60.6501C251.637 60.6501 252.492 60.9257 253.12 61.4768C253.748 62.0169 254.062 62.7554 254.062 63.6924V69.9092H252.326V68.2392H252.029L252.326 67.9086C252.326 68.5699 252.073 69.099 251.566 69.4958C251.059 69.8816 250.386 70.0745 249.548 70.0745ZM250.078 68.7022C250.717 68.7022 251.24 68.5424 251.648 68.2227C252.067 67.892 252.277 67.4732 252.277 66.9661V65.7757H249.78C249.317 65.7757 248.948 65.9024 248.672 66.1559C248.408 66.4095 248.275 66.7567 248.275 67.1976C248.275 67.6605 248.435 68.0298 248.755 68.3054C249.074 68.5699 249.515 68.7022 250.078 68.7022ZM256.751 69.9092V68.2888H259.942V62.4358H257.164V60.8154H261.678V68.2888H264.605V69.9092H256.751ZM260.636 59.2447C260.251 59.2447 259.942 59.1455 259.71 58.9471C259.479 58.7376 259.363 58.4621 259.363 58.1204C259.363 57.7676 259.479 57.4921 259.71 57.2937C259.942 57.0842 260.251 56.9795 260.636 56.9795C261.022 56.9795 261.331 57.0842 261.562 57.2937C261.794 57.4921 261.909 57.7676 261.909 58.1204C261.909 58.4621 261.794 58.7376 261.562 58.9471C261.331 59.1455 261.022 59.2447 260.636 59.2447ZM266.714 69.9092V60.8154H268.484V62.5515H268.913L268.484 62.9649C268.484 62.2374 268.699 61.6697 269.128 61.2618C269.558 60.854 270.154 60.6501 270.914 60.6501C271.818 60.6501 272.54 60.9422 273.08 61.5264C273.62 62.0996 273.89 62.8767 273.89 63.8577V69.9092H272.105V64.0561C272.105 63.4609 271.945 63.0034 271.625 62.6838C271.305 62.3641 270.87 62.2043 270.319 62.2043C269.757 62.2043 269.31 62.3751 268.98 62.7168C268.66 63.0475 268.5 63.5325 268.5 64.1718V69.9092H266.714ZM222.118 91.9092V79.8393H225.673C226.819 79.8393 227.718 80.1149 228.368 80.666C229.018 81.2171 229.343 81.9777 229.343 82.9477C229.343 83.4988 229.222 83.9783 228.98 84.3862C228.748 84.783 228.423 85.0916 228.004 85.3121C227.585 85.5325 227.095 85.6428 226.533 85.6428V85.4774C227.139 85.4664 227.673 85.5821 228.136 85.8246C228.599 86.0561 228.963 86.4033 229.228 86.8663C229.492 87.3292 229.624 87.8804 229.624 88.5197C229.624 89.2031 229.47 89.8038 229.162 90.3219C228.864 90.829 228.434 91.2203 227.872 91.4958C227.321 91.7714 226.665 91.9092 225.904 91.9092H222.118ZM223.854 90.3715H225.755C226.395 90.3715 226.902 90.2007 227.277 89.859C227.651 89.5172 227.839 89.0433 227.839 88.437C227.839 87.8197 227.651 87.3237 227.277 86.949C226.902 86.5742 226.395 86.3868 225.755 86.3868H223.854V90.3715ZM223.854 84.8987H225.656C226.252 84.8987 226.72 84.7389 227.062 84.4192C227.403 84.0996 227.574 83.6697 227.574 83.1296C227.574 82.5895 227.403 82.1651 227.062 81.8565C226.72 81.5368 226.257 81.377 225.673 81.377H223.854V84.8987ZM232.313 91.9092V82.8154H234.033V84.5515H234.463L233.917 85.6262C233.917 84.6452 234.132 83.9067 234.562 83.4107C234.992 82.9036 235.631 82.6501 236.48 82.6501C237.45 82.6501 238.216 82.9532 238.778 83.5595C239.351 84.1547 239.638 84.9759 239.638 86.023V86.6348H237.802V86.1718C237.802 85.5215 237.637 85.0255 237.306 84.6838C236.987 84.3311 236.535 84.1547 235.951 84.1547C235.366 84.1547 234.909 84.3311 234.578 84.6838C234.259 85.0365 234.099 85.5325 234.099 86.1718V91.9092H232.313ZM241.88 91.9092V90.2888H245.071V84.4358H242.293V82.8154H246.807V90.2888H249.734V91.9092H241.88ZM245.765 81.2447C245.38 81.2447 245.071 81.1455 244.839 80.9471C244.608 80.7376 244.492 80.4621 244.492 80.1204C244.492 79.7676 244.608 79.4921 244.839 79.2937C245.071 79.0842 245.38 78.9795 245.765 78.9795C246.151 78.9795 246.46 79.0842 246.691 79.2937C246.923 79.4921 247.038 79.7676 247.038 80.1204C247.038 80.4621 246.923 80.7376 246.691 80.9471C246.46 81.1455 246.151 81.2447 245.765 81.2447ZM254.77 92.0745C253.855 92.0745 253.122 91.7659 252.571 91.1486C252.02 90.5313 251.744 89.6991 251.744 88.652V86.0892C251.744 85.031 252.02 84.1933 252.571 83.576C253.122 82.9587 253.855 82.6501 254.77 82.6501C255.52 82.6501 256.115 82.8595 256.556 83.2784C256.997 83.6862 257.217 84.2484 257.217 84.9649L256.837 84.5515H257.25L257.2 82.4351V79.8393H258.986V91.9092H257.217V90.1731H256.837L257.217 89.7597C257.217 90.4762 256.997 91.0439 256.556 91.4628C256.115 91.8706 255.52 92.0745 254.77 92.0745ZM255.382 90.5203C255.944 90.5203 256.385 90.3495 256.704 90.0078C257.035 89.655 257.2 89.17 257.2 88.5528V86.1718C257.2 85.5546 257.035 85.0751 256.704 84.7334C256.385 84.3807 255.944 84.2043 255.382 84.2043C254.798 84.2043 254.34 84.3751 254.009 84.7168C253.679 85.0475 253.513 85.5325 253.513 86.1718V88.5528C253.513 89.1921 253.679 89.6826 254.009 90.0243C254.34 90.355 254.798 90.5203 255.382 90.5203ZM262.948 94.8853V93.3476H265.742C266.205 93.3476 266.547 93.2374 266.767 93.017C266.999 92.7965 267.114 92.4713 267.114 92.0415V91.1321L267.148 89.4456H266.767L267.131 89.1149C267.131 89.8093 266.911 90.355 266.47 90.7518C266.04 91.1486 265.456 91.347 264.717 91.347C263.78 91.347 263.042 91.0384 262.501 90.4211C261.961 89.8038 261.691 88.9716 261.691 87.9245V86.0726C261.691 85.0255 261.961 84.1933 262.501 83.576C263.042 82.9587 263.78 82.6501 264.717 82.6501C265.456 82.6501 266.04 82.854 266.47 83.2618C266.911 83.6587 267.131 84.2043 267.131 84.8987L266.767 84.5515H267.131L267.114 82.8154H268.884V92.0745C268.884 92.9453 268.608 93.6287 268.057 94.1247C267.506 94.6318 266.74 94.8853 265.759 94.8853H262.948ZM265.296 89.8093C265.858 89.8093 266.299 89.6385 266.618 89.2968C266.949 88.9441 267.114 88.4591 267.114 87.8418V86.1718C267.114 85.5546 266.949 85.0751 266.618 84.7334C266.299 84.3807 265.858 84.2043 265.296 84.2043C264.712 84.2043 264.26 84.3751 263.94 84.7168C263.631 85.0475 263.477 85.5325 263.477 86.1718V87.8418C263.477 88.4701 263.631 88.9551 263.94 89.2968C264.26 89.6385 264.712 89.8093 265.296 89.8093ZM275.243 92.0745C274.504 92.0745 273.854 91.9312 273.292 91.6446C272.741 91.347 272.316 90.9337 272.019 90.4046C271.721 89.8755 271.572 89.2582 271.572 88.5528V86.1718C271.572 85.4554 271.721 84.8381 272.019 84.32C272.316 83.7909 272.741 83.3831 273.292 83.0965C273.854 82.7989 274.504 82.6501 275.243 82.6501C275.992 82.6501 276.643 82.7989 277.194 83.0965C277.745 83.3831 278.169 83.7909 278.467 84.32C278.765 84.8381 278.913 85.4554 278.913 86.1718V87.7922H273.292V88.5528C273.292 89.2251 273.457 89.7377 273.788 90.0904C274.13 90.4432 274.62 90.6195 275.259 90.6195C275.777 90.6195 276.196 90.5313 276.516 90.355C276.836 90.1676 277.034 89.8975 277.111 89.5448H278.88C278.748 90.3164 278.351 90.9337 277.69 91.3966C277.028 91.8486 276.213 92.0745 275.243 92.0745ZM277.194 86.7175V86.1553C277.194 85.494 277.028 84.9814 276.698 84.6176C276.367 84.2539 275.882 84.072 275.243 84.072C274.615 84.072 274.13 84.2539 273.788 84.6176C273.457 84.9814 273.292 85.4995 273.292 86.1718V86.5852L277.326 86.5687L277.194 86.7175Z" fill="#BDBDBD"/>
<path d="M309.363 69.9092L312.439 57.8393H314.787L317.862 69.9092H316.06L315.332 66.8504H311.91L311.182 69.9092H309.363ZM312.24 65.3788H314.985L314.158 61.8901C314.015 61.2729 313.894 60.7383 313.794 60.2863C313.706 59.8234 313.646 59.5092 313.613 59.3439C313.58 59.5092 313.519 59.8234 313.431 60.2863C313.343 60.7383 313.221 61.2674 313.067 61.8736L312.24 65.3788ZM323.51 70.0745C322.419 70.0745 321.548 69.7604 320.898 69.1321C320.247 68.4928 319.922 67.6275 319.922 66.5362V60.8154H321.708V66.5362C321.708 67.1645 321.868 67.655 322.187 68.0078C322.507 68.3495 322.948 68.5203 323.51 68.5203C324.083 68.5203 324.53 68.3495 324.849 68.0078C325.18 67.655 325.345 67.1645 325.345 66.5362V60.8154H327.131V66.5362C327.131 67.6275 326.8 68.4928 326.139 69.1321C325.489 69.7604 324.612 70.0745 323.51 70.0745ZM334.433 69.9092C333.606 69.9092 332.961 69.6832 332.498 69.2313C332.035 68.7794 331.804 68.1511 331.804 67.3464V62.4358H329.291V60.8154H331.804V58.2526H333.589V60.8154H337.144V62.4358H333.589V67.3464C333.589 67.9747 333.893 68.2888 334.499 68.2888H336.979V69.9092H334.433ZM343.355 70.058C342.605 70.058 341.955 69.9147 341.404 69.6281C340.852 69.3415 340.428 68.9337 340.13 68.4046C339.833 67.8755 339.684 67.2527 339.684 66.5362V64.1884C339.684 63.4609 339.833 62.8381 340.13 62.32C340.428 61.7909 340.852 61.3831 341.404 61.0965C341.955 60.8099 342.605 60.6666 343.355 60.6666C344.104 60.6666 344.754 60.8099 345.306 61.0965C345.857 61.3831 346.281 61.7909 346.579 62.32C346.876 62.8381 347.025 63.4609 347.025 64.1884V66.5362C347.025 67.2527 346.876 67.8755 346.579 68.4046C346.281 68.9337 345.857 69.3415 345.306 69.6281C344.754 69.9147 344.104 70.058 343.355 70.058ZM343.355 68.4872C343.961 68.4872 344.429 68.3219 344.76 67.9912C345.091 67.6495 345.256 67.1645 345.256 66.5362V64.1884C345.256 63.5491 345.091 63.0641 344.76 62.7334C344.429 62.4027 343.961 62.2374 343.355 62.2374C342.759 62.2374 342.291 62.4027 341.949 62.7334C341.619 63.0641 341.453 63.5491 341.453 64.1884V66.5362C341.453 67.1645 341.619 67.6495 341.949 67.9912C342.291 68.3219 342.759 68.4872 343.355 68.4872ZM350.623 65.2631V63.6428H355.914V65.2631H350.623ZM359.909 69.9092V60.8154H361.628V62.5515H362.058L361.513 63.6262C361.513 62.6452 361.728 61.9067 362.157 61.4107C362.587 60.9036 363.227 60.6501 364.075 60.6501C365.045 60.6501 365.812 60.9532 366.374 61.5595C366.947 62.1547 367.233 62.9759 367.233 64.023V64.6348H365.398V64.1718C365.398 63.5215 365.233 63.0255 364.902 62.6838C364.582 62.3311 364.131 62.1547 363.546 62.1547C362.962 62.1547 362.505 62.3311 362.174 62.6838C361.854 63.0365 361.695 63.5325 361.695 64.1718V69.9092H359.909ZM373.097 70.0745C372.358 70.0745 371.708 69.9312 371.146 69.6446C370.594 69.347 370.17 68.9337 369.872 68.4046C369.575 67.8755 369.426 67.2582 369.426 66.5528V64.1718C369.426 63.4554 369.575 62.8381 369.872 62.32C370.17 61.7909 370.594 61.3831 371.146 61.0965C371.708 60.7989 372.358 60.6501 373.097 60.6501C373.846 60.6501 374.496 60.7989 375.048 61.0965C375.599 61.3831 376.023 61.7909 376.321 62.32C376.618 62.8381 376.767 63.4554 376.767 64.1718V65.7922H371.146V66.5528C371.146 67.2251 371.311 67.7377 371.642 68.0904C371.983 68.4432 372.474 68.6195 373.113 68.6195C373.631 68.6195 374.05 68.5313 374.37 68.355C374.689 68.1676 374.888 67.8975 374.965 67.5448H376.734C376.602 68.3164 376.205 68.9337 375.544 69.3966C374.882 69.8486 374.067 70.0745 373.097 70.0745ZM375.048 64.7175V64.1553C375.048 63.494 374.882 62.9814 374.552 62.6176C374.221 62.2539 373.736 62.072 373.097 62.072C372.468 62.072 371.983 62.2539 371.642 62.6176C371.311 62.9814 371.146 63.4995 371.146 64.1718V64.5852L375.18 64.5687L375.048 64.7175ZM381.572 69.9092V63.3947H378.993V61.7744H381.572V60.3029C381.572 59.5423 381.815 58.9416 382.3 58.5007C382.785 58.0597 383.446 57.8393 384.284 57.8393H386.946V59.4266H384.317C384.008 59.4266 383.766 59.5037 383.589 59.658C383.424 59.8124 383.341 60.0328 383.341 60.3194V61.7744H386.946V63.3947H383.341V69.9092H381.572ZM389.651 69.9092V60.8154H391.37V62.5515H391.8L391.255 63.6262C391.255 62.6452 391.47 61.9067 391.899 61.4107C392.329 60.9036 392.969 60.6501 393.817 60.6501C394.787 60.6501 395.553 60.9532 396.116 61.5595C396.689 62.1547 396.975 62.9759 396.975 64.023V64.6348H395.14V64.1718C395.14 63.5215 394.975 63.0255 394.644 62.6838C394.324 62.3311 393.873 62.1547 393.288 62.1547C392.704 62.1547 392.247 62.3311 391.916 62.6838C391.596 63.0365 391.437 63.5325 391.437 64.1718V69.9092H389.651ZM402.839 70.0745C402.1 70.0745 401.45 69.9312 400.888 69.6446C400.336 69.347 399.912 68.9337 399.614 68.4046C399.317 67.8755 399.168 67.2582 399.168 66.5528V64.1718C399.168 63.4554 399.317 62.8381 399.614 62.32C399.912 61.7909 400.336 61.3831 400.888 61.0965C401.45 60.7989 402.1 60.6501 402.839 60.6501C403.588 60.6501 404.238 60.7989 404.79 61.0965C405.341 61.3831 405.765 61.7909 406.063 62.32C406.36 62.8381 406.509 63.4554 406.509 64.1718V65.7922H400.888V66.5528C400.888 67.2251 401.053 67.7377 401.384 68.0904C401.725 68.4432 402.216 68.6195 402.855 68.6195C403.373 68.6195 403.792 68.5313 404.112 68.355C404.431 68.1676 404.63 67.8975 404.707 67.5448H406.476C406.344 68.3164 405.947 68.9337 405.286 69.3966C404.624 69.8486 403.809 70.0745 402.839 70.0745ZM404.79 64.7175V64.1553C404.79 63.494 404.624 62.9814 404.294 62.6176C403.963 62.2539 403.478 62.072 402.839 62.072C402.21 62.072 401.725 62.2539 401.384 62.6176C401.053 62.9814 400.888 63.4995 400.888 64.1718V64.5852L404.922 64.5687L404.79 64.7175ZM412.438 70.058C411.788 70.058 411.215 69.9533 410.719 69.7438C410.234 69.5344 409.848 69.2478 409.561 68.8841C409.286 68.5093 409.126 68.0684 409.082 67.5613H410.868C410.912 67.859 411.072 68.1015 411.347 68.2888C411.623 68.4652 411.986 68.5534 412.438 68.5534H413.149C413.69 68.5534 414.097 68.4432 414.373 68.2227C414.648 68.0022 414.786 67.7101 414.786 67.3464C414.786 66.9937 414.66 66.7181 414.406 66.5197C414.163 66.3103 413.8 66.1725 413.315 66.1063L412.141 65.9245C411.171 65.7701 410.454 65.4946 409.991 65.0978C409.539 64.6899 409.313 64.0892 409.313 63.2955C409.313 62.4578 409.584 61.813 410.124 61.3611C410.675 60.8981 411.485 60.6666 412.554 60.6666H413.182C414.13 60.6666 414.885 60.8871 415.448 61.328C416.021 61.7579 416.346 62.3366 416.423 63.0641H414.637C414.593 62.7995 414.445 62.5846 414.191 62.4192C413.949 62.2539 413.612 62.1712 413.182 62.1712H412.554C412.036 62.1712 411.656 62.2704 411.413 62.4688C411.182 62.6562 411.066 62.9373 411.066 63.3121C411.066 63.6428 411.171 63.8908 411.38 64.0561C411.59 64.2215 411.915 64.3372 412.356 64.4033L413.563 64.6017C414.588 64.745 415.337 65.0316 415.811 65.4615C416.296 65.8804 416.539 66.4921 416.539 67.2968C416.539 68.1676 416.252 68.8455 415.679 69.3305C415.117 69.8155 414.274 70.058 413.149 70.058H412.438ZM419.095 69.9092V57.8393H420.881V60.8154L420.864 62.5515H421.294L420.864 62.9649C420.864 62.2374 421.079 61.6697 421.509 61.2618C421.939 60.854 422.534 60.6501 423.295 60.6501C424.199 60.6501 424.921 60.9422 425.461 61.5264C426.001 62.0996 426.271 62.8767 426.271 63.8577V69.9092H424.485V64.0561C424.485 63.4609 424.325 62.9979 424.006 62.6672C423.686 62.3366 423.251 62.1712 422.7 62.1712C422.137 62.1712 421.691 62.3476 421.36 62.7003C421.041 63.042 420.881 63.5325 420.881 64.1718V69.9092H419.095ZM348.378 92.0745C347.628 92.0745 346.967 91.9367 346.394 91.6612C345.831 91.3746 345.396 90.9667 345.087 90.4376C344.79 89.8975 344.641 89.2692 344.641 88.5528V86.1718C344.641 85.4443 344.79 84.8161 345.087 84.287C345.396 83.7579 345.831 83.3555 346.394 83.08C346.967 82.7934 347.628 82.6501 348.378 82.6501C349.469 82.6501 350.345 82.9367 351.007 83.5099C351.668 84.083 352.015 84.8657 352.048 85.8577H350.263C350.23 85.3396 350.048 84.9373 349.717 84.6507C349.386 84.3641 348.94 84.2208 348.378 84.2208C347.771 84.2208 347.292 84.3917 346.939 84.7334C346.587 85.0641 346.41 85.538 346.41 86.1553V88.5528C346.41 89.17 346.587 89.6495 346.939 89.9912C347.292 90.3329 347.771 90.5038 348.378 90.5038C348.94 90.5038 349.386 90.3605 349.717 90.0739C350.048 89.7873 350.23 89.385 350.263 88.8669H352.048C352.015 89.859 351.668 90.6416 351.007 91.2147C350.345 91.7879 349.469 92.0745 348.378 92.0745ZM356.109 94.8853L357.415 91.3801L354.026 82.8154H355.993L357.895 87.941C357.972 88.1615 358.049 88.426 358.126 88.7346C358.204 89.0433 358.27 89.2968 358.325 89.4952C358.369 89.2968 358.43 89.0433 358.507 88.7346C358.584 88.426 358.661 88.1615 358.738 87.941L360.524 82.8154H362.425L357.994 94.8853H356.109ZM368.206 92.0745C367.456 92.0745 366.795 91.9367 366.222 91.6612C365.659 91.3746 365.224 90.9667 364.915 90.4376C364.618 89.8975 364.469 89.2692 364.469 88.5528V86.1718C364.469 85.4443 364.618 84.8161 364.915 84.287C365.224 83.7579 365.659 83.3555 366.222 83.08C366.795 82.7934 367.456 82.6501 368.206 82.6501C369.297 82.6501 370.173 82.9367 370.835 83.5099C371.496 84.083 371.843 84.8657 371.876 85.8577H370.091C370.058 85.3396 369.876 84.9373 369.545 84.6507C369.214 84.3641 368.768 84.2208 368.206 84.2208C367.599 84.2208 367.12 84.3917 366.767 84.7334C366.415 85.0641 366.238 85.538 366.238 86.1553V88.5528C366.238 89.17 366.415 89.6495 366.767 89.9912C367.12 90.3329 367.599 90.5038 368.206 90.5038C368.768 90.5038 369.214 90.3605 369.545 90.0739C369.876 89.7873 370.058 89.385 370.091 88.8669H371.876C371.843 89.859 371.496 90.6416 370.835 91.2147C370.173 91.7879 369.297 92.0745 368.206 92.0745ZM379.36 91.9092C378.798 91.9092 378.307 91.799 377.888 91.5785C377.469 91.347 377.139 91.0219 376.896 90.603C376.665 90.1841 376.549 89.6991 376.549 89.148V81.4596H373.573V79.8393H378.335V89.148C378.335 89.5007 378.434 89.7818 378.632 89.9912C378.831 90.1896 379.101 90.2888 379.442 90.2888H382.253V91.9092H379.36ZM387.968 92.0745C387.229 92.0745 386.579 91.9312 386.017 91.6446C385.465 91.347 385.041 90.9337 384.743 90.4046C384.446 89.8755 384.297 89.2582 384.297 88.5528V86.1718C384.297 85.4554 384.446 84.8381 384.743 84.32C385.041 83.7909 385.465 83.3831 386.017 83.0965C386.579 82.7989 387.229 82.6501 387.968 82.6501C388.717 82.6501 389.367 82.7989 389.919 83.0965C390.47 83.3831 390.894 83.7909 391.192 84.32C391.489 84.8381 391.638 85.4554 391.638 86.1718V87.7922H386.017V88.5528C386.017 89.2251 386.182 89.7377 386.513 90.0904C386.854 90.4432 387.345 90.6195 387.984 90.6195C388.502 90.6195 388.921 90.5313 389.241 90.355C389.56 90.1676 389.759 89.8975 389.836 89.5448H391.605C391.473 90.3164 391.076 90.9337 390.415 91.3966C389.753 91.8486 388.938 92.0745 387.968 92.0745ZM389.919 86.7175V86.1553C389.919 85.494 389.753 84.9814 389.423 84.6176C389.092 84.2539 388.607 84.072 387.968 84.072C387.339 84.072 386.854 84.2539 386.513 84.6176C386.182 84.9814 386.017 85.4995 386.017 86.1718V86.5852L390.051 86.5687L389.919 86.7175Z" fill="#BDBDBD"/>
<path d="M98.8133 69.9092L101.889 57.8393H104.236L107.312 69.9092H105.51L104.782 66.8504H101.36L100.632 69.9092H98.8133ZM101.69 65.3788H104.435L103.608 61.8901C103.465 61.2729 103.344 60.7383 103.244 60.2863C103.156 59.8234 103.096 59.5092 103.063 59.3439C103.029 59.5092 102.969 59.8234 102.881 60.2863C102.792 60.7383 102.671 61.2674 102.517 61.8736L101.69 65.3788ZM109.637 69.9092V68.3219H112.067V59.4266H109.637V57.8393H116.316V59.4266H113.886V68.3219H116.316V69.9092H109.637ZM133.449 70.0745C132.7 70.0745 132.105 69.8706 131.664 69.4628C131.223 69.0439 131.002 68.4762 131.002 67.7597L131.383 68.1731H131.002V69.9092H129.233V57.8393H131.019V60.4351L130.969 62.5515H131.383L131.002 62.9649C131.002 62.2484 131.223 61.6862 131.664 61.2784C132.116 60.8595 132.711 60.6501 133.449 60.6501C134.364 60.6501 135.097 60.9587 135.648 61.576C136.2 62.1933 136.475 63.031 136.475 64.0892V66.652C136.475 67.6991 136.2 68.5313 135.648 69.1486C135.097 69.7659 134.364 70.0745 133.449 70.0745ZM132.838 68.5203C133.422 68.5203 133.879 68.355 134.21 68.0243C134.541 67.6826 134.706 67.1921 134.706 66.5528V64.1718C134.706 63.5325 134.541 63.0475 134.21 62.7168C133.879 62.3751 133.422 62.2043 132.838 62.2043C132.275 62.2043 131.829 62.3807 131.498 62.7334C131.179 63.0751 131.019 63.5546 131.019 64.1718V66.5528C131.019 67.17 131.179 67.655 131.498 68.0078C131.829 68.3495 132.275 68.5203 132.838 68.5203ZM139.445 69.9092V60.8154H141.164V62.5515H141.594L141.049 63.6262C141.049 62.6452 141.264 61.9067 141.693 61.4107C142.123 60.9036 142.763 60.6501 143.611 60.6501C144.581 60.6501 145.347 60.9532 145.91 61.5595C146.483 62.1547 146.769 62.9759 146.769 64.023V64.6348H144.934V64.1718C144.934 63.5215 144.769 63.0255 144.438 62.6838C144.118 62.3311 143.666 62.1547 143.082 62.1547C142.498 62.1547 142.041 62.3311 141.71 62.6838C141.39 63.0365 141.23 63.5325 141.23 64.1718V69.9092H139.445ZM151.723 70.0745C150.775 70.0745 150.026 69.832 149.474 69.347C148.934 68.851 148.664 68.1786 148.664 67.3299C148.664 66.4701 148.951 65.7977 149.524 65.3127C150.108 64.8167 150.907 64.5687 151.922 64.5687H154.451V63.7254C154.451 63.2294 154.297 62.8436 153.988 62.568C153.68 62.2925 153.244 62.1547 152.682 62.1547C152.186 62.1547 151.773 62.2649 151.442 62.4854C151.111 62.6948 150.918 62.9759 150.863 63.3286H149.111C149.21 62.5129 149.585 61.8626 150.235 61.3776C150.896 60.8926 151.729 60.6501 152.732 60.6501C153.812 60.6501 154.666 60.9257 155.294 61.4768C155.923 62.0169 156.237 62.7554 156.237 63.6924V69.9092H154.501V68.2392H154.203L154.501 67.9086C154.501 68.5699 154.247 69.099 153.74 69.4958C153.233 69.8816 152.561 70.0745 151.723 70.0745ZM152.252 68.7022C152.892 68.7022 153.415 68.5424 153.823 68.2227C154.242 67.892 154.451 67.4732 154.451 66.9661V65.7757H151.955C151.492 65.7757 151.122 65.9024 150.847 66.1559C150.582 66.4095 150.45 66.7567 150.45 67.1976C150.45 67.6605 150.61 68.0298 150.929 68.3054C151.249 68.5699 151.69 68.7022 152.252 68.7022ZM158.926 69.9092V68.2888H162.117V62.4358H159.339V60.8154H163.853V68.2888H166.779V69.9092H158.926ZM162.811 59.2447C162.425 59.2447 162.117 59.1455 161.885 58.9471C161.654 58.7376 161.538 58.4621 161.538 58.1204C161.538 57.7676 161.654 57.4921 161.885 57.2937C162.117 57.0842 162.425 56.9795 162.811 56.9795C163.197 56.9795 163.505 57.0842 163.737 57.2937C163.968 57.4921 164.084 57.7676 164.084 58.1204C164.084 58.4621 163.968 58.7376 163.737 58.9471C163.505 59.1455 163.197 59.2447 162.811 59.2447ZM168.889 69.9092V60.8154H170.658V62.5515H171.088L170.658 62.9649C170.658 62.2374 170.873 61.6697 171.303 61.2618C171.733 60.854 172.328 60.6501 173.089 60.6501C173.993 60.6501 174.715 60.9422 175.255 61.5264C175.795 62.0996 176.065 62.8767 176.065 63.8577V69.9092H174.279V64.0561C174.279 63.4609 174.119 63.0034 173.8 62.6838C173.48 62.3641 173.045 62.2043 172.494 62.2043C171.931 62.2043 171.485 62.3751 171.154 62.7168C170.835 63.0475 170.675 63.5325 170.675 64.1718V69.9092H168.889Z" fill="#BDBDBD"/>
</svg>
