<svg width="62" height="54" viewBox="0 0 62 54" fill="none" xmlns="http://www.w3.org/2000/svg">
<path d="M59.4706 36.8824C59.4706 44.6795 53.1501 51 45.3529 51C42.8259 51 40.4513 50.3365 38.3986 49.1718C36.2247 47.9396 34.4163 46.153 33.1579 43.9941C31.8996 41.8352 31.2361 39.3812 31.2353 36.8824C31.2353 33.257 32.6019 29.9506 34.8466 27.4518C36.1695 25.9753 37.7891 24.7947 39.5996 23.9871C41.41 23.1794 43.3705 22.7629 45.3529 22.7647C53.1501 22.7647 59.4706 29.0852 59.4706 36.8824Z" stroke="#00FFA3" stroke-width="4.5" stroke-linecap="round" stroke-linejoin="round"/>
<path d="M45.3529 10.0588V22.7647C43.3705 22.7629 41.41 23.1794 39.5996 23.9871C37.7891 24.7947 36.1695 25.9754 34.8466 27.4518C32.5166 30.0397 31.2298 33.4001 31.2353 36.8824C31.2372 37.7012 31.3049 38.5003 31.4386 39.2795C31.7943 41.3407 32.6032 43.2973 33.8068 45.0079C35.0104 46.7186 36.5787 48.1408 38.3986 49.1718C34.6405 50.3083 29.6513 51 24.1765 51C12.4814 51 3 47.8391 3 43.9412V10.0588" stroke="#00FFA3" stroke-width="4.5" stroke-linecap="round" stroke-linejoin="round"/>
<path d="M3 32.6471C3 36.5449 12.4814 39.7059 24.1765 39.7059C26.7275 39.7059 29.1741 39.5562 31.4386 39.2795M3 21.3529C3 25.2508 12.4814 28.4118 24.1765 28.4118C28.0673 28.4118 31.7139 28.0616 34.8466 27.4518M51 36.8824H45.3529V31.2353M45.3529 10.0588C45.3529 13.9567 35.8715 17.1176 24.1765 17.1176C12.4814 17.1176 3 13.9567 3 10.0588C3 6.16094 12.4814 3 24.1765 3C35.8715 3 45.3529 6.16094 45.3529 10.0588Z" stroke="#00FFA3" stroke-width="4.5" stroke-linecap="round" stroke-linejoin="round"/>
</svg>
