<svg width="63" height="52" viewBox="0 0 63 52" fill="none" xmlns="http://www.w3.org/2000/svg">
<path d="M17.8057 40.1084L20.681 48.9525C20.7628 49.2046 20.9094 49.4308 21.106 49.6086C21.3027 49.7864 21.5425 49.9095 21.8015 49.9656C22.0606 50.0218 22.3298 50.009 22.5824 49.9285C22.835 49.8481 23.0621 49.7029 23.241 49.5072L36.0608 35.5249" stroke="#00FFA3" stroke-width="3.6" stroke-linecap="round" stroke-linejoin="round"/>
<path d="M52.6032 28.2829C52.6032 28.2829 50.9966 36.7966 41.4946 36.7966C31.9927 36.7966 26.0042 25.0726 18.847 25.0726C10.3924 25.0726 8.17194 32.1691 8.17194 36.7966C8.17194 40.7465 10.2697 42.3516 13.0464 42.3516C15.8232 42.3516 21.0069 37.6605 23.2289 35.2536H35.5061" stroke="#00FFA3" stroke-width="3.6" stroke-linecap="round" stroke-linejoin="round"/>
<path d="M18.847 25.0728C18.847 21.0001 15.5761 17.852 10.4546 17.852C5.33303 17.852 2 20.3832 2 27.5404C2 34.6975 8.18861 36.1162 8.18861 36.1162" stroke="#00FFA3" stroke-width="3.6" stroke-linecap="round" stroke-linejoin="round"/>
<path d="M6.17875 18.6795C4.24623 13.5837 9.03433 8.59557 16.44 8.59557C27.6714 8.59557 28.6884 26.8295 39.4575 26.8295C48.4062 26.8295 54.4069 15.2237 50.319 8.53494C44.8883 -0.353132 35.8077 1.28079 31.9805 4.92151" stroke="#00FFA3" stroke-width="3.6" stroke-linecap="round" stroke-linejoin="round"/>
<path d="M16.4401 8.59562C18.4772 1.74465 28.69 1.52942 32.7323 5.5718C36.7747 9.61417 36.558 15.3829 30.8862 21.7019M45.2626 25.0728C49.6097 30.3475 60.2954 29.6139 61.0669 19.154C61.8384 8.69414 52.6805 8.86238 50.851 9.56264" stroke="#00FFA3" stroke-width="3.6" stroke-linecap="round" stroke-linejoin="round"/>
</svg>
